<svg xmlns="http://www.w3.org/2000/svg" width="892.028" height="778.357" viewBox="0 0 892.028 778.357">
  <path id="Pfad_45" data-name="Pfad 45" d="M335.8,12086.584s.287-7.193,0-44.891-44.9-37.107-44.9-37.107H20.6c-46.35,0-55.772-27.98-56.438-69.191s-45.017-42.156-45.017-42.156H-382.631s-47.4-1.115-47.4,44.789v623.893s-8.478,73.348,92.3,74.652H337.748s91.325,1.637,88.9-89.064,0-404.482,0-404.482,5.994-60.361-71.082-59.057-539.2,0-539.2,0-29.886-.312-45.906,6.264c-12.406,5.086-24.319,16.92-24.319,42.447v374.787c0,102.373,7.021,129.137-83.875,129.105" transform="translate(447.745 -11875.724)" fill="none" stroke="#b1b8c3" stroke-width="35"/>
</svg>
